<svg xmlns="http://www.w3.org/2000/svg" fill="none" viewBox="0 0 24 24" stroke-width="0.4" stroke="currentColor" class="w-6 h-6">
  <path stroke-linecap="round" stroke-linejoin="round" d="
  M 11.35 3.84
C 11.29 4.05 11.25 4.27 11.25 4.5
C 11.25 4.91 11.59 5.25 12 5.25
H 16.5
A 0.75 0.75 0 0 0 17.25 4.5
A 2.25 2.25 0 0 0 17.15 3.84
M 11.35 3.84
A 2.25 2.25 0 0 1 13.5 2.25
H 15
C 16.01 2.25 16.87 2.92 17.15 3.84
M 11.35 3.84
C 10.97 3.86 10.6 3.89 10.23 3.92
C 9.1 4.01 8.25 4.97 8.25 6.11
V 10.25
M 17.15 3.84
C 17.53 3.86 17.9 3.89 18.27 3.92
C 19.4 4.01 20.25 4.97 20.25 6.11
V 16.5
A 2.25 2.25 0 0 1 18 18.75
H 14.75
M 8.25 10.25
H 5.88
C 5.25 10.25 4.75 10.75 4.75 11.38
V 19.62
C 4.75 20.25 5.25 20.75 5.88 20.75
H 13.62
C 14.25 20.75 14.75 20.25 14.75 19.62
V 18.75
M 8.25 10.25
H 13.62
C 14.25 10.25 14.75 10.75 14.75 11.38
V 18.75
M 7.5 15.75
L 9 17.25
L 12 13.5" />
</svg>
